<svg xmlns="http://www.w3.org/2000/svg" version="1.1" xmlns:xlink="http://www.w3.org/1999/xlink" width="512" height="512" x="0" y="0" viewBox="0 0 512 512" style="enable-background:new 0 0 512 512" xml:space="preserve" class=""><g><path d="M301.707 348.415v82.264H114.29l18.25-36.576c24.643 0 44.608-19.966 44.608-44.595v-1.093h124.559z" style="" fill="#b5c0c9" data-original="#b5c0c9"></path><path d="M301.707 348.415v82.264h-68.412c40.961 0 36.576-36.576 36.576-36.576h-41.888c44.531 0 45.701-45.688 45.701-45.688h28.023z" style="" fill="#c9d1d6" data-original="#c9d1d6"></path><path d="M512 53.777v271.88c0 18.326-14.882 33.208-33.195 33.208H33.195C14.869 358.864 0 343.982 0 325.656V53.777c0-18.339 14.869-33.195 33.195-33.195h445.609C497.117 20.581 512 35.438 512 53.777z" style="" fill="#afe0ef" data-original="#afe0ef" class=""></path><path d="M512 53.777v271.88c0 18.326-14.882 33.208-33.195 33.208h-318.14C398.307 291.24 405.856 20.581 405.856 20.581h72.948c18.313 0 33.196 14.857 33.196 33.196z" style="" fill="#e6f7fc" data-original="#e6f7fc"></path><path d="M512 302.793v22.863c0 18.326-14.882 33.208-33.195 33.208H33.195C14.869 358.864 0 343.982 0 325.656v-22.863h512z" style="" fill="#b5c0c9" data-original="#b5c0c9"></path><path d="M512 302.793v22.863c0 18.326-14.882 33.208-33.195 33.208h-318.14c44.391-12.62 80.752-32.344 110.541-56.071H512z" style="" fill="#c9d1d6" data-original="#c9d1d6"></path><path d="M466.28 238.24v238.829c0 7.929-6.432 14.35-14.35 14.35H315.993c-7.929 0-14.35-6.421-14.35-14.35V238.24c0-7.929 6.421-14.35 14.35-14.35H451.93c7.917 0 14.35 6.422 14.35 14.35z" style="" fill="#3c4a5e" data-original="#3c4a5e"></path><path d="M466.28 238.24v238.829c0 7.929-6.432 14.35-14.35 14.35H338.78c127.499-48.02 113.15-267.528 113.15-267.528 7.917-.001 14.35 6.421 14.35 14.349z" style="" fill="#4b5a6b" data-original="#4b5a6b"></path><path d="M301.641 271.914h164.634v171.489H301.641z" style="" fill="#afe0ef" data-original="#afe0ef" class=""></path><path d="M466.28 271.912v171.487h-65.453c37.612-50.675 48.172-123.802 50.803-171.487h14.65z" style="" fill="#e6f7fc" data-original="#e6f7fc"></path><path d="M173.471 237.47a7.837 7.837 0 0 1-7.837-7.837c0-77.548 63.09-140.638 140.638-140.638a7.837 7.837 0 0 1 0 15.674c-68.906 0-124.965 56.059-124.965 124.965a7.836 7.836 0 0 1-7.836 7.836z" style="" fill="#f26464" data-original="#f26464"></path><path d="M217.493 237.47a7.837 7.837 0 0 1-7.837-7.837c0-53.274 43.341-96.615 96.615-96.615a7.837 7.837 0 0 1 0 15.674c-44.632 0-80.942 36.31-80.942 80.942a7.836 7.836 0 0 1-7.836 7.836z" style="" fill="#f26464" data-original="#f26464"></path><path d="M261.516 237.47a7.837 7.837 0 0 1-7.837-7.837c0-29 23.593-52.593 52.593-52.593a7.837 7.837 0 0 1 0 15.674c-20.358 0-36.919 16.562-36.919 36.919a7.837 7.837 0 0 1-7.837 7.837z" style="" fill="#f26464" data-original="#f26464"></path></g></svg>