<svg xmlns="http://www.w3.org/2000/svg" version="1.1" xmlns:xlink="http://www.w3.org/1999/xlink" width="512" height="512" x="0" y="0" viewBox="0 0 64 64" style="enable-background:new 0 0 512 512" xml:space="preserve" class=""><g><path fill="#16417c" d="M6 19h52v11H6z" opacity="1" data-original="#16417c"></path><path fill="#8b95a5" d="M11 10h42v9H11z" opacity="1" data-original="#8b95a5"></path><path fill="#1b4d97" d="M58 30v-8H14.482A5.482 5.482 0 0 0 9 27.482V30z" opacity="1" data-original="#1b4d97"></path><path fill="#215ab6" d="M5 57a3 3 0 0 1-3-3V33a3 3 0 0 1 3-3h54a3 3 0 0 1 3 3v21a3 3 0 0 1-3 3z" opacity="1" data-original="#215ab6"></path><path fill="#296cd3" d="M62 54V33H9a3 3 0 0 0-3 3v21h53a3 3 0 0 0 3-3z" opacity="1" data-original="#296cd3"></path><circle cx="12" cy="36" r="2" fill="#78902b" opacity="1" data-original="#78902b"></circle><circle cx="20" cy="36" r="2" fill="#d4484a" opacity="1" data-original="#d4484a"></circle><path fill="#16417c" d="M8 51h48v6H8zM8 42h48v4H8z" opacity="1" data-original="#16417c"></path><path fill="#c2cee5" d="M15 30V2h27l7 6v22zM15 46h34v16H15z" opacity="1" data-original="#c2cee5"></path><path fill="#d8dfed" d="M18 15.947V30h31V8l-3.5-3H28.947A10.947 10.947 0 0 0 18 15.947z" opacity="1" data-original="#d8dfed"></path><path fill="#99aecd" d="m42 2 .001 6H49z" opacity="1" data-original="#99aecd"></path><path fill="#d8dfed" d="M18 49.691A9.309 9.309 0 0 0 27.309 59H49V46H18z" opacity="1" data-original="#d8dfed"></path><path fill="#8b95a5" d="M2 42v12a3 3 0 0 0 3 3h3V42zM56 57h3a3 3 0 0 0 3-3V42h-6z" opacity="1" data-original="#8b95a5"></path><g fill="#d4484a"><path d="m32 18 5-5h-3V6h-4v7h-3zM42 26v-7h-4v3H26v-3h-4v7z" fill="#d4484a" opacity="1" data-original="#d4484a"></path></g></g></svg>