<svg xmlns="http://www.w3.org/2000/svg" version="1.1" xmlns:xlink="http://www.w3.org/1999/xlink" width="512" height="512" x="0" y="0" viewBox="0 0 64 64" style="enable-background:new 0 0 512 512" xml:space="preserve" class=""><g><path fill="#a8b0bc" d="M10 2h40v54H10z" opacity="1" data-original="#a8b0bc" class=""></path><path fill="#cbd0d7" d="M10 44.84c.987.105 1.987.16 3 .16 16.569 0 30-14.327 30-32 0-3.865-.642-7.57-1.82-11H10z" opacity="1" data-original="#cbd0d7" class=""></path><path fill="#83b7f9" d="M14 6h32v24H14z" opacity="1" data-original="#83b7f9"></path><path fill="#b5d4fb" d="M14 30h24.412C41.315 25.074 43 19.248 43 13c0-2.405-.249-4.747-.721-7H14z" opacity="1" data-original="#b5d4fb"></path><circle cx="25" cy="14" r="2" fill="#f5b953" opacity="1" data-original="#f5b953"></circle><path fill="#96cc7f" d="m27 21 5-5 8 8H20l5-5 5 5" opacity="1" data-original="#96cc7f"></path><path fill="#fcd4a5" d="m50 35 6 6v12l-6 6v3H40V41a3 3 0 1 1 6 0v5a2 2 0 0 0 2 2h2z" opacity="1" data-original="#fcd4a5"></path><path fill="#ffffff" d="M14 33h32v2H14zM14 37h23v2H14zM14 41h23v2H14zM14 45h23v2H14zM14 49h23v2H14z" opacity="1" data-original="#ffffff"></path></g></svg>